<svg id="Layer_1" data-name="Layer 1" xmlns="http://www.w3.org/2000/svg" viewBox="0 0 672.47 110.71" width="100%" height="100%"><defs><style>.cls-1{fill:#fff}</style></defs><title>RH_IOT_HiRes-RGB-W</title><path class="cls-1" d="M235 28.67h15.24l5.47 15.04h-15.04L235 28.67zM210.99 43.84h22.06l-5-15.07h-17.06V17.34h21.15V2.27H193.2v26H185l8.2 21.81v20.63h38.94V55.65h-21.15V43.84z"/><path class="cls-1" d="M50.67 133.79h-6.76v-26h6.76v26zM62.74 107.78h6.76l12.39 15.9H82v-15.9h6.76v26H82l-12.43-15.93h-.06v15.94h-6.77v-26zM115.18 114.47a7.11 7.11 0 0 0-4.49-1.72c-1.24 0-2.9.72-2.9 2.17s1.83 2.1 3 2.48l1.73.52c3.62 1.07 6.42 2.9 6.42 7.11 0 2.59-.62 5.24-2.69 7a11.41 11.41 0 0 1-7.38 2.45 16 16 0 0 1-9.14-3l2.9-5.45a9.28 9.28 0 0 0 6 2.69c1.59 0 3.28-.79 3.28-2.62s-2.66-2.55-4.11-3c-4.24-1.21-7-2.31-7-7.35 0-5.28 3.76-8.73 9-8.73a17.79 17.79 0 0 1 8.14 2.14zM140.26 133.79h-6.76V113.5h-5.59v-5.73h17.94v5.73h-5.59v20.29zM162.83 133.79h-6.76v-26h6.76v26zM185.35 133.79h-6.76V113.5H173v-5.73h17.94v5.73h-5.59v20.29zM223.72 107.78v14.63c0 3.35-.14 6.66-2.73 9.18-2.17 2.14-5.59 2.9-8.62 2.9s-6.45-.76-8.62-2.9c-2.59-2.52-2.73-5.83-2.73-9.18v-14.63h6.76v13.7c0 3.38.24 7.07 4.59 7.07s4.59-3.69 4.59-7.07v-13.7h6.76zM246.11 133.79h-6.76V113.5h-5.59v-5.73h17.94v5.73h-5.59v20.29zM268.67 113.5v4.35h7.63v5.73h-7.62v4.49h8v5.73h-14.8v-26h14.8v5.73h-8zM335.7 120.3c0 8.42-6 14.35-14.39 14.35s-14.39-5.93-14.39-14.35c0-7.87 6.9-13.39 14.39-13.39s14.39 5.52 14.39 13.39zm-21.74 0a7.36 7.36 0 1 0 14.7 0c0-3.59-3.31-6.87-7.35-6.87s-7.31 3.32-7.31 6.9zM352.51 113.5v4.35h7.42v5.73h-7.42v10.21h-6.76v-26h14.94v5.73h-8.18zM402.15 133.79h-6.76V113.5h-5.59v-5.73h17.94v5.73h-5.59v20.29zM425.75 113.5v4.35h7.63v5.73h-7.62v4.49h8v5.73H419v-26h14.8v5.73h-8zM465 116.51a7.34 7.34 0 0 0-5.93-2.86 6.85 6.85 0 0 0-6.93 7.21 6.75 6.75 0 0 0 7 7.07 7.78 7.78 0 0 0 5.83-2.76v8.11a19.14 19.14 0 0 1-6 1.21 14.49 14.49 0 0 1-9.76-3.83 12.72 12.72 0 0 1-4.17-9.83 13.61 13.61 0 0 1 3.83-9.52 14.09 14.09 0 0 1 9.9-4.21 15.86 15.86 0 0 1 6.23 1.3v8.11zM494.33 117.82v-10h6.76v26h-6.76v-10.69h-9.76v10.66h-6.76v-26h6.76v10h9.76zM514.13 107.78h6.76l12.39 15.9h.07v-15.9h6.76v26h-6.76L521 117.85h-.1v15.94h-6.76v-26zM578.89 120.3c0 8.42-6 14.35-14.39 14.35s-14.39-5.93-14.39-14.35c0-7.87 6.9-13.39 14.39-13.39s14.39 5.52 14.39 13.39zm-21.74 0a7.36 7.36 0 1 0 14.7 0c0-3.59-3.31-6.87-7.35-6.87s-7.34 3.32-7.34 6.9zM594.83 128.06h8.11v5.73h-14.87v-26h6.76v20.29zM640.37 120.3c0 8.42-6 14.35-14.39 14.35s-14.39-5.93-14.39-14.35c0-7.87 6.9-13.39 14.39-13.39s14.39 5.52 14.39 13.39zm-21.74 0a7.36 7.36 0 1 0 14.7 0c0-3.59-3.31-6.87-7.35-6.87s-7.35 3.32-7.35 6.9zM675.49 119.27c-.07 3.79-.35 7-2.66 10.28-2.55 3.55-6.38 5.11-10.73 5.11-8.18 0-13.87-5.55-13.87-13.73 0-8.45 5.73-14 14.11-14 5.35 0 9.49 2.42 11.73 7.28l-6.42 2.69a5.88 5.88 0 0 0-5.62-4.14c-4.45 0-6.76 4.24-6.76 8.21s2.42 8.14 6.87 8.14c2.93 0 5.17-1.52 5.45-4.52h-5.52v-5.31h13.42zM681.77 107.78h8.11l4.86 7.07 4.86-7.07h8.11l-9.59 13.52v12.49h-6.76V121.3z" transform="translate(-35.99 -23.95)"/><path class="cls-1" d="M306.01 2.65v26.41h-22.69V2.65h-17.8v25.62H257l8.52 22.66v20.16h17.8V46.04h22.69v25.05h17.79V2.65h-17.79z"/><path class="cls-1" d="M425.78 26.6v38.48c0 8.8-.36 17.52-7.17 24.15-5.72 5.63-14.71 7.63-22.69 7.63s-17-2-22.69-7.62C366.41 82.6 366 73.89 366 65.08V26.6h17.79v36c0 8.9.64 18.61 12.07 18.61S408 71.53 408 62.63v-36h17.79zM449.83 80h21.33v15H432V26.6h17.79V80zM487.51 26.6H505l13.89 36.58 14.73-36.58h17.7L561.67 95h-17.79l-5-39.4h-.18L522.28 95h-7.08l-15.7-39.4h-.18L493.59 95h-17.7zM588.64 83.15L583.92 95H565l26.36-68.4h19.43L636.57 95h-19l-4.45-11.89h-24.48zm12.44-35.4h-.18l-7.35 21.79h14.8zM640.11 26.6h17.79l32.59 41.85h.18V26.6h17.79V95h-17.79l-32.59-41.9h-.18V95h-17.79V26.6zM79.43 66.61c9.71-1.72 15-9.89 15-19.33 0-14.61-10.26-21.06-23.78-21.06H44v26h-8l8 21.37v21.07h17.82V68.33H62l16.79 26.33h22.15zM63.54 56.9h-1.72V39.83h1.72c5.81 0 12.35 1.09 12.35 8.53s-6.54 8.54-12.35 8.54z" transform="translate(-35.99 -23.95)"/><path class="cls-1" d="M172 59.17c0 22.15-15.89 37.76-37.85 37.76S96.3 81.32 96.3 59.17c0-20.7 18.15-35.22 37.85-35.22S172 38.47 172 59.17zm-57.19.09c0 11.8 8.71 20.42 19.33 20.42s19.34-8.62 19.34-20.42c0-9.44-8.71-18.06-19.34-18.06s-19.32 8.62-19.32 18.06zM212.85 43.83a18.72 18.72 0 0 0-11.8-4.54c-3.27 0-7.62 1.91-7.62 5.72 0 4 4.81 5.54 7.9 6.54l4.54 1.36c9.53 2.81 16.88 7.63 16.88 18.7 0 6.81-1.63 13.8-7.08 18.43s-12.53 6.45-19.43 6.45a42.24 42.24 0 0 1-24.06-7.81l7.63-14.34c4.45 3.9 9.71 7.08 15.79 7.08 4.18 0 8.62-2.09 8.62-6.9 0-5-7-6.72-10.8-7.81-11.17-3.18-18.52-6.08-18.52-19.33 0-13.89 9.89-23 23.6-23A46.81 46.81 0 0 1 219.93 30z" transform="translate(-35.99 -23.95)"/></svg>